<?xml version="1.0" encoding="UTF-8"?>
<svg width="536px" height="147px" viewBox="0 0 536 147" version="1.1" xmlns="http://www.w3.org/2000/svg" xmlns:xlink="http://www.w3.org/1999/xlink">
    <!-- Generator: Sketch 59.1 (86144) - https://sketch.com -->
    <title>logoBlack</title>
    <desc>Created with Sketch.</desc>
    <g id="logoBlack" stroke="none" stroke-width="1" fill="none" fill-rule="evenodd">
        <path d="M75.547,7.115808 C77.90803,7.266989 80.31866,7.41699 82.72929,7.617777 C82.930078,7.819746 85.74229,8.120927 85.94307,8.321715 C98.94937,10.732345 109.54507,16.807945 119.48877,25.345015 C124.31004,30.317465 128.17697,35.339515 131.89277,41.214315 C133.19789,43.976915 134.5538,46.738335 135.9097,49.500945 C137.76876,55.627335 139.17427,61.151345 140.1286,67.428945 C140.1782,70.743125 140.2786,74.108085 140.38017,77.471845 C140.07781,80.033655 139.77663,82.594295 139.52624,85.156105 C137.46639,95.19901 133.85104,103.78681 128.27744,112.32391 C125.46523,115.99006 125.46523,115.99006 125.26444,116.44242 C117.88136,124.2755 110.75104,129.90112 101.25964,134.77202 C98.89861,135.62595 96.58955,136.5295 94.27932,137.43305 C88.202537,139.24132 81.925017,140.44605 75.547017,140.698 C52.5474,140.6472 29.5477,140.6472 6.5977,140.6472 L6.5977,7.216202 L6.5977,7.216202 C29.5477,7.166592 52.5474,7.115808 75.547,7.115808 Z M78.20918,27.10391 C77.55603,22.383035 73.73989,20.67516 69.72177,23.28658 C68.617435,24.54209 68.21586,25.49642 68.21586,27.2043 C70.575708,33.0295 71.228858,38.95513 71.53004,45.2327 C65.15204,45.03191 59.17565,44.17797 53.20044,41.86773 C46.22011,42.47008 46.6713,51.91183 53.35044,51.91183 C58.77414,49.300404 65.30323,48.69686 71.27844,48.54686 C71.53002,52.06185 70.626474,55.82839 70.02293,59.24296 C69.06978,62.40714 68.16505,65.7721 65.05166,67.3288 C67.16111,87.0639 70.37489,106.9005 73.1871,126.586 C73.3879,126.23516 74.944592,114.28235 75.14538,114.08156 C80.97059,70.592138 81.171377,70.391358 81.47374,67.378358 C75.747751,65.972858 75.346175,52.363008 74.9446,48.647258 C80.921,48.797258 87.60017,49.200018 93.0238,51.911828 C99.75255,51.911828 100.10452,42.520879 93.224588,41.867728 C87.549388,44.37876 81.373358,44.931516 75.245788,45.232698 C75.095788,45.132304 74.995394,45.08152 74.895,45.03191 C75.39697,38.60311 75.74776,33.1299 78.20918,27.10391 Z" id="Combined-Shape" fill="#787878"></path>
        <path d="M528.66936,7.116926 C528.71896,7.167716 528.76975,7.21732 528.87015,7.268107 L528.87015,140.54711 L528.87015,140.54711 C422.2059,140.50991 315.570337,140.472035 208.941462,140.455423 L102.316,140.445926 L103.188761,140.051652 C111.60661,136.194149 118.926323,131.2958 125.916,125.1304 C126.21718,124.62843 128.72821,122.26858 132.99672,117.24653 C136.91444,111.77211 140.3798,106.34853 143.34202,100.27293 C144.19596,97.9119 145.0995,95.55206 146.00423,93.24182 C150.9755,76.62012 150.72392,60.55002 145.50108,44.02762 C144.64832,41.81777 143.79438,39.60911 142.94045,37.44887 C138.01879,27.80752 132.14395,19.77247 124.35935,12.23937 C122.35029,10.53267 120.34242,8.8744 118.33336,7.21732 C255.07836,7.16771 391.87336,7.116926 528.66936,7.116926 Z M102.316,140.445926 L102.314,140.447 L102.314,140.44671 L102.316,140.445926 Z M393.83204,59.99741 C374.19734,62.25681 365.25757,80.98911 369.97844,99.21831 C370.6812,100.77501 371.38514,102.3317 372.1375,103.8884 C377.11,111.37067 382.8844,114.38367 391.67296,115.18802 C398.75376,114.38369 405.03128,112.37581 411.10806,108.75927 C410.7053,106.55061 408.79782,103.93919 407.74309,101.93013 C407.39113,101.93013 407.39113,101.93013 406.3364,102.4321 C401.3651,103.9888 396.44345,104.34077 391.321,103.63683 C390.21667,103.13486 389.11234,102.63289 388.05761,102.13092 C379.4698,95.50142 380.42413,84.352962 386.04855,76.117122 C388.91155,73.003732 391.67297,71.799002 395.74069,70.793882 L395.74069,70.793882 L401.61668,70.793882 C404.98046,71.49782 404.98046,71.49782 406.48755,71.64782 C409.50055,63.763954 409.50055,63.763954 409.60094,63.01041 C404.42894,61.30371 399.30646,59.99741 393.83204,59.99741 Z M464.84375,60.062 C458.61695,60.76476 452.62442,62.86972 447,65.53075 C446.59842,66.73665 448.93356,71.73577 449.9375,73.34325 C455.6127,71.2338 460.38026,69.8745 466.40625,69.8745 C466.60704,70.075288 466.58469,70.097925 468.59375,70.4995 C473.01344,72.80978 472.97342,76.51691 473.375,81.187 C462.5277,81.8897 447.8314,81.789651 443.3125,94.09325 C441.2031,104.33815 446.3535,113.4428 457,114.9995 C463.52914,114.9995 468.5932,112.0313 473.0625,107.562 C473.21368,107.5112 473.38007,107.4995 473.53125,107.4995 C474.28479,112.77313 474.27421,112.77681 474.625,113.78075 L474.625,113.78075 L477.377624,113.745181 C480.133619,113.71184 482.900688,113.687 485.686956,113.679518 L485.686956,113.679518 L485.83319,113.68 C485.7824,101.6776 485.7328,89.726 485.7328,77.7744 L485.732,77.839926 L485.707164,85.250759 C485.700503,87.7431807 485.695566,90.2360551 485.691866,92.7298354 L485.683,99.773926 L485.685382,92.7318287 C485.687002,90.2387304 485.690049,87.7465568 485.695339,85.2548598 L485.71875,77.78075 C485.0656,70.49809 483.20842,66.21058 477.03125,62.09325 C473.61668,60.737345 472.13829,60.544038 471.9375,60.34325 C469.57765,60.242856 467.20478,60.162394 464.84375,60.062 Z M250.91047,41.616543 C240.71637,38.804333 230.72307,37.548823 220.27737,39.809453 C213.09627,42.370113 207.77301,45.081933 202.40017,50.455953 C199.48757,54.321713 197.02615,57.987853 195.21788,62.457153 C192.50606,71.546953 192.50606,79.381183 194.21394,88.571353 C197.57884,100.22185 204.25804,108.15646 215.50684,112.82655 C221.38284,114.53443 226.50407,115.08719 232.63164,114.83561 C237.10091,114.33364 241.11784,113.32852 245.43714,112.32458 C247.89738,111.47065 250.4084,110.61671 252.91943,109.76395 C252.86864,97.81115 252.81904,85.910353 252.81904,74.008353 L252.81904,74.008353 L226.80524,74.008353 L226.80524,74.108747 C226.80524,77.674517 226.80524,81.239097 226.85604,84.804847 C239.331743,84.9989421 239.7476,85.0054119 239.761462,85.1421888 L239.761462,85.1421888 L239.76194,85.156816 C239.71235,90.781316 239.66155,96.4057 239.66155,102.03012 C236.94969,103.38602 231.82725,102.98445 228.66425,102.98445 C227.10756,102.68327 225.60047,102.38208 224.09338,102.13051 C217.06347,99.41871 213.19653,95.80333 209.63078,88.97301 C207.22015,81.99271 206.71818,75.36432 208.52645,68.08281 C208.72723,67.88084 209.42999,65.72178 210.93708,62.508 C215.90838,55.47685 223.24068,50.3048 232.22888,50.3048 L232.22888,50.3048 L236.2471,50.304753 C240.56518,50.706333 240.56518,50.706333 247.3955,51.811843 C248.55062,48.396083 249.70574,44.981513 250.91047,41.616543 Z M297.625,62.59325 C293.53866,60.653731 289.58716,60.013838 285.71875,60.15575 C279.2714,60.392271 272.99731,62.863175 266.46875,65.46825 C267.42308,68.02889 268.40231,70.63808 269.40625,73.2495 C272.21846,72.34595 275.012,71.447188 277.875,70.59325 C280.93761,69.890493 284.51161,69.678387 287.625,70.28075 C292.54666,72.39024 292.73671,76.30441 292.9375,81.1245 C284.0485,81.67726 275.67644,81.83409 268.09375,86.90575 C266.53588,88.51205 264.76058,90.04123 263.65625,91.9995 C261.99916,96.36836 262.20192,100.01731 263.15625,104.437 C265.61651,109.65981 268.29512,112.40959 273.71875,114.46825 C281.55185,115.92455 287.02519,112.81609 292.75,107.59325 C292.8504,107.59325 292.94257,107.66865 293.09375,107.71825 C293.8969,113.09227 294.09375,113.29206 294.09375,113.59325 C297.86027,113.59325 301.63971,113.6374 305.40625,113.687 C305.35546,100.9819 305.3008,88.2671 305.25,75.562 C304.19527,69.8372 302.39666,65.95822 297.625,62.59325 Z M358.27689,61.353 L345.371,61.353 L345.371,113.781 L345.72297,113.781 C349.94066,113.7314 354.15956,113.6806 358.42807,113.6806 C358.37728,96.205 358.32769,78.779 358.27689,61.353 L358.27689,61.353 Z M331.5115,33.933518 L318.354,33.933518 L318.354,34.234718 C318.354,60.699718 318.4048,87.164718 318.4544,113.68052 L318.4544,113.68052 L331.5115,113.68052 L331.5115,33.933518 Z M433.9569,61.352406 C429.63881,61.352406 425.31951,61.40319 421.05098,61.4528 L421.05098,61.4528 L421.05098,113.68001 L434.10808,113.68001 C434.05729,96.20441 434.0077,78.778406 433.9569,61.352406 Z M292.90625,89.3745 C292.95585,92.53868 292.98164,95.75446 293.03125,98.96825 C290.7718,102.78558 285.0119,104.57839 280.84375,105.03075 C277.98193,104.2276 276.02387,103.44336 274.71875,100.53075 C273.01087,90.08625 285.52315,89.5752 292.90625,89.3745 Z M473.280956,89.325518 L473.280956,89.325518 C473.27761,90.929669 473.289516,92.5461507 473.307943,94.1683456 C473.325316,95.9009307 473.349436,97.640479 473.375,99.3745 C468.9057,103.09143 460.4213,108.45325 455.75,101.8745 C450.82952,90.9776 466.15095,89.5128 473.28125,89.312 L473.28125,89.312 Z M358.27758,45.53423 C360.18618,38.101545 353.80824,33.07949 347.28028,37.198 C343.16177,41.81734 344.86964,48.948849 351.49804,49.752 C354.71301,49.45077 356.57088,48.34644 358.27758,45.53423 Z M433.20417,38.402819 C429.88881,34.53588 424.96834,34.93746 421.75337,38.554 C419.09234,43.87719 421.60337,48.64767 427.177,49.752007 C427.78054,49.651613 428.43251,49.602009 429.08566,49.551219 C434.10772,47.643779 435.6148,43.375269 433.20417,38.402819 Z" id="Combined-Shape" fill="#787878"></path>
    </g>
</svg>