<?xml version="1.0" encoding="UTF-8"?>
<svg width="536px" height="147px" viewBox="0 0 536 147" version="1.1" xmlns="http://www.w3.org/2000/svg" xmlns:xlink="http://www.w3.org/1999/xlink">
    <!-- Generator: Sketch 59.1 (86144) - https://sketch.com -->
    <title>logoWhite</title>
    <desc>Created with Sketch.</desc>
    <g id="logoWhite" stroke="none" stroke-width="1" fill="none" fill-rule="evenodd">
        <path d="M535,0 L535,147 L0,147 L0,0 L535,0 Z M75.547,7.115808 C58.2973,7.115808 41.0475437,7.144374 23.8187406,7.17958622 L6.5977,7.216202 L6.5977,140.6472 C29.5477,140.6472 52.5474,140.6472 75.547017,140.698 C81.925017,140.44605 88.202537,139.24132 94.27932,137.43305 C96.58955,136.5295 98.89861,135.62595 101.25964,134.77202 C110.75104,129.90112 117.88136,124.2755 125.26444,116.44242 C125.46523,115.99006 125.46523,115.99006 128.27744,112.32391 C133.85104,103.78681 137.46639,95.19901 139.52624,85.156105 C139.77663,82.594295 140.07781,80.033655 140.38017,77.471845 C140.2786,74.108085 140.1782,70.743125 140.1286,67.428945 C139.17427,61.151345 137.76876,55.627335 135.9097,49.500945 C134.5538,46.738335 133.19789,43.976915 131.89277,41.214315 C128.17697,35.339515 124.31004,30.317465 119.48877,25.345015 C109.54507,16.807945 98.94937,10.732345 85.94307,8.321715 C85.74229,8.120927 82.930078,7.819746 82.72929,7.617777 C80.31866,7.41699 77.90803,7.266989 75.547,7.115808 Z M528.66936,7.116926 C391.87336,7.116926 255.07836,7.16771 118.33336,7.21732 C120.34242,8.8744 122.35029,10.53267 124.35935,12.23937 C132.14395,19.77247 138.01879,27.80752 142.94045,37.44887 C143.79438,39.60911 144.64832,41.81777 145.50108,44.02762 C150.72392,60.55002 150.9755,76.62012 146.00423,93.24182 C145.0995,95.55206 144.19596,97.9119 143.34202,100.27293 C140.3798,106.34853 136.91444,111.77211 132.99672,117.24653 C128.72821,122.26858 126.21718,124.62843 125.916,125.1304 C118.926323,131.2958 111.60661,136.194149 103.188761,140.051652 L103.188761,140.051652 L102.316,140.445926 L208.941462,140.455422 C315.570337,140.472035 422.2059,140.50991 528.87015,140.54711 L528.87015,140.54711 L528.87015,7.268107 C528.76975,7.21732 528.71896,7.167716 528.66936,7.116926 Z M102.316,140.445926 L102.314,140.44671 L102.314,140.447 L102.316,140.445926 Z M78.20918,27.10391 C75.74776,33.1299 75.39697,38.60311 74.895,45.03191 C74.995394,45.08152 75.095788,45.132304 75.245788,45.232698 C81.373358,44.931516 87.549388,44.37876 93.224588,41.867728 C100.10452,42.520879 99.75255,51.911828 93.0238,51.911828 C87.60017,49.200018 80.921,48.797258 74.9446,48.647258 C75.346175,52.363008 75.747751,65.972858 81.47374,67.378358 L81.4556743,67.5561321 C81.1610958,70.4167047 80.8540858,71.4619264 75.14538,114.08156 C74.944592,114.28235 73.3879,126.23516 73.1871,126.586 C70.37489,106.9005 67.16111,87.0639 65.05166,67.3288 C67.9704631,65.8693938 68.9480612,62.8206965 69.8442308,59.8381062 L70.02293,59.24296 C70.626474,55.82839 71.53002,52.06185 71.27844,48.54686 C65.30323,48.69686 58.77414,49.300404 53.35044,51.91183 C46.6713,51.91183 46.22011,42.47008 53.20044,41.86773 C59.17565,44.17797 65.15204,45.03191 71.53004,45.2327 C71.228858,38.95513 70.575708,33.0295 68.21586,27.2043 C68.21586,25.49642 68.617435,24.54209 69.72177,23.28658 C73.73989,20.67516 77.55603,22.383035 78.20918,27.10391 Z M393.83204,59.99741 C399.30646,59.99741 404.42894,61.30371 409.60094,63.01041 C409.50055,63.763954 409.50055,63.763954 406.48755,71.64782 C404.98046,71.49782 404.98046,71.49782 401.61668,70.793882 L401.61668,70.793882 L395.74069,70.793882 L395.33822,70.8951227 C391.488762,71.8814381 388.816117,73.1075117 386.04855,76.117122 C380.42413,84.352962 379.4698,95.50142 388.05761,102.13092 C389.11234,102.63289 390.21667,103.13486 391.321,103.63683 C396.44345,104.34077 401.3651,103.9888 406.3364,102.4321 C407.267044,101.989185 407.376532,101.937078 407.631193,101.930947 L407.74309,101.93013 C408.79782,103.93919 410.7053,106.55061 411.10806,108.75927 C405.03128,112.37581 398.75376,114.38369 391.67296,115.18802 C382.8844,114.38367 377.11,111.37067 372.1375,103.8884 C371.38514,102.3317 370.6812,100.77501 369.97844,99.21831 C365.25757,80.98911 374.19734,62.25681 393.83204,59.99741 Z M464.84375,60.062 C467.20478,60.162394 469.57765,60.242856 471.9375,60.34325 C472.13829,60.544038 473.61668,60.737345 477.03125,62.09325 C483.20842,66.21058 485.0656,70.49809 485.71875,77.78075 L485.71875,77.78075 L485.695339,85.2548598 C485.690049,87.7465568 485.687002,90.2387304 485.685382,92.7318287 L485.685382,92.7318287 L485.683,99.374 L485.691866,92.7298354 C485.693716,91.4829453 485.695876,90.2362816 485.698405,88.9897877 L485.707164,85.250759 L485.732,77.839 L485.741344,86.7388938 C485.752231,92.7162813 485.772492,98.6968438 485.796077,104.686931 L485.83319,113.68 L485.686956,113.679518 L482.906786,113.692458 C481.057205,113.704505 479.214954,113.722954 477.377624,113.745181 L477.377624,113.745181 L474.625,113.78075 L474.603089,113.717967 C474.274314,112.774268 474.268757,112.660925 473.53125,107.4995 C473.38007,107.4995 473.21368,107.5112 473.0625,107.562 C468.5932,112.0313 463.52914,114.9995 457,114.9995 C446.3535,113.4428 441.2031,104.33815 443.3125,94.09325 C447.8314,81.789651 462.5277,81.8897 473.375,81.187 C472.97342,76.51691 473.01344,72.80978 468.59375,70.4995 C466.58469,70.097925 466.60704,70.075288 466.40625,69.8745 C460.38026,69.8745 455.6127,71.2338 449.9375,73.34325 C448.93356,71.73577 446.59842,66.73665 447,65.53075 C452.62442,62.86972 458.61695,60.76476 464.84375,60.062 Z M220.27737,39.809453 C230.72307,37.548823 240.71637,38.804333 250.91047,41.616543 C249.70574,44.981513 248.55062,48.396083 247.3955,51.811843 C240.56518,50.706333 240.56518,50.706333 236.2471,50.304753 L236.2471,50.304753 L232.22888,50.3048 L231.773283,50.3092413 C222.992806,50.4806578 215.824121,55.596022 210.93708,62.508 C209.42999,65.72178 208.72723,67.88084 208.52645,68.08281 C206.71818,75.36432 207.22015,81.99271 209.63078,88.97301 C213.19653,95.80333 217.06347,99.41871 224.09338,102.13051 C225.60047,102.38208 227.10756,102.68327 228.66425,102.98445 C231.82725,102.98445 236.94969,103.38602 239.66155,102.03012 C239.66155,96.4057 239.71235,90.781316 239.76194,85.156816 L239.76194,85.156816 L239.761462,85.1421888 C239.736592,85.0052406 239.189974,84.9967364 226.85604,84.804847 C226.80524,81.239097 226.80524,77.674517 226.80524,74.108747 L226.80524,74.108747 L226.80524,74.008353 L252.81904,74.008353 L252.827584,82.9354588 C252.843914,91.8640017 252.881337,100.79935 252.91943,109.76395 C250.4084,110.61671 247.89738,111.47065 245.43714,112.32458 C241.11784,113.32852 237.10091,114.33364 232.63164,114.83561 C226.50407,115.08719 221.38284,114.53443 215.50684,112.82655 C204.25804,108.15646 197.57884,100.22185 194.21394,88.571353 C192.50606,79.381183 192.50606,71.546953 195.21788,62.457153 C197.02615,57.987853 199.48757,54.321713 202.40017,50.455953 C207.77301,45.081933 213.09627,42.370113 220.27737,39.809453 Z M285.71875,60.15575 C289.58716,60.013838 293.53866,60.653731 297.625,62.59325 C302.39666,65.95822 304.19527,69.8372 305.25,75.562 C305.3008,88.2671 305.35546,100.9819 305.40625,113.687 C301.63971,113.6374 297.86027,113.59325 294.09375,113.59325 C294.09375,113.29206 293.8969,113.09227 293.09375,107.71825 C292.94257,107.66865 292.8504,107.59325 292.75,107.59325 C287.02519,112.81609 281.55185,115.92455 273.71875,114.46825 C268.29512,112.40959 265.61651,109.65981 263.15625,104.437 C262.20192,100.01731 261.99916,96.36836 263.65625,91.9995 C264.76058,90.04123 266.53588,88.51205 268.09375,86.90575 C275.67644,81.83409 284.0485,81.67726 292.9375,81.1245 C292.73671,76.30441 292.54666,72.39024 287.625,70.28075 C284.51161,69.678387 280.93761,69.890493 277.875,70.59325 C275.012,71.447188 272.21846,72.34595 269.40625,73.2495 C268.40231,70.63808 267.42308,68.02889 266.46875,65.46825 C272.99731,62.863175 279.2714,60.392271 285.71875,60.15575 Z M358.27689,61.353 C358.32769,78.779 358.37728,96.205 358.42807,113.6806 C354.15956,113.6806 349.94066,113.7314 345.72297,113.781 L345.72297,113.781 L345.371,113.781 L345.371,61.353 Z M331.5115,33.933518 L331.5115,113.68052 L318.4544,113.68052 L318.417787,93.8024001 C318.382575,73.932218 318.354,54.083468 318.354,34.234718 L318.354,34.234718 L318.354,33.933518 L331.5115,33.933518 Z M433.9569,61.352406 C434.0077,78.778406 434.05729,96.20441 434.10808,113.68001 L434.10808,113.68001 L421.05098,113.68001 L421.05098,61.4528 L424.261085,61.4161842 C427.479084,61.380972 430.718332,61.352406 433.9569,61.352406 Z M292.90625,89.3745 C285.52315,89.5752 273.01087,90.08625 274.71875,100.53075 C276.02387,103.44336 277.98193,104.2276 280.84375,105.03075 C285.0119,104.57839 290.7718,102.78558 293.03125,98.96825 C292.98164,95.75446 292.95585,92.53868 292.90625,89.3745 Z M473.28125,89.312 C466.15095,89.5128 450.82952,90.9776 455.75,101.8745 C460.4213,108.45325 468.9057,103.09143 473.375,99.3745 C473.349436,97.640479 473.325316,95.9009307 473.307943,94.1683456 C473.289516,92.5461507 473.27761,90.929669 473.280956,89.325518 L473.280956,89.325518 Z M347.28028,37.198 C353.80824,33.07949 360.18618,38.101545 358.27758,45.53423 C356.57088,48.34644 354.71301,49.45077 351.49804,49.752 C344.86964,48.948849 343.16177,41.81734 347.28028,37.198 Z M421.75337,38.554 C424.96834,34.93746 429.88881,34.53588 433.20417,38.402819 C435.6148,43.375269 434.10772,47.643779 429.08566,49.551219 C428.43251,49.602009 427.78054,49.651613 427.177,49.752007 C421.60337,48.64767 419.09234,43.87719 421.75337,38.554 Z" id="Combined-Shape" fill="#D8D8D8"></path>
    </g>
</svg>