<?xml version="1.0" encoding="UTF-8"?>
<svg width="294px" height="82px" viewBox="0 0 294 82" version="1.1" xmlns="http://www.w3.org/2000/svg" xmlns:xlink="http://www.w3.org/1999/xlink">
    <!-- Generator: Sketch 59.1 (86144) - https://sketch.com -->
    <title>logoLetters</title>
    <desc>Created with Sketch.</desc>
    <g id="logoLetters" stroke="none" stroke-width="1" fill="none" fill-rule="evenodd">
        <path d="M198.636044,81.254502 C189.847444,80.450152 184.073044,77.437152 179.100544,69.954882 C178.348184,68.398182 177.644244,66.841492 176.941484,65.284792 C172.220614,47.055592 181.160384,28.323292 200.795084,26.063892 C206.269504,26.063892 211.391984,27.370192 216.563984,29.076892 C216.463594,29.830436 216.463594,29.830436 213.450594,37.714302 C211.943504,37.564302 211.943504,37.564302 208.579724,36.860364 C206.620274,36.860364 204.662004,36.860364 202.703734,36.860364 C198.636014,37.865484 195.874594,39.070214 193.011594,42.183604 C187.387174,50.419444 186.432844,61.567902 195.020654,68.197402 C196.075384,68.699372 197.179714,69.201342 198.284044,69.703312 C203.406494,70.407252 208.328144,70.055282 213.299444,68.498582 C214.354174,67.996612 214.354174,67.996612 214.706134,67.996612 C215.760864,70.005672 217.668344,72.617092 218.071104,74.825752 C211.994324,78.442292 205.716804,80.450172 198.636004,81.254502 L198.636044,81.254502 Z" id="_160931712" fill="#FFFFFF"></path>
        <path d="M43.2100443,16.371282 C41.8541343,16.371282 40.4982343,16.371282 39.1919243,16.371282 C30.2037243,16.371282 22.8714243,21.543332 17.9001243,28.574482 C16.3930343,31.788262 15.6902743,33.947322 15.4894943,34.149292 C13.6812243,41.430802 14.1831943,48.059192 16.5938243,55.039492 C20.1595743,61.869812 24.0265143,65.485192 31.0564243,68.196992 C32.5635143,68.448562 34.0706043,68.749752 35.6272943,69.050932 C38.7902943,69.050932 43.9127343,69.452502 46.6245943,68.096602 C46.6245943,62.472182 46.6753943,56.847798 46.7249843,51.223298 C46.7249843,51.072117 46.7249843,51.072117 33.8190843,50.871329 C33.7682843,47.305579 33.7682843,43.740999 33.7682843,40.175229 C33.7682843,40.124439 33.7682843,40.074835 33.7682843,40.074835 C42.4068843,40.074835 51.0938843,40.074835 59.7820843,40.074835 C59.7820843,51.976835 59.8316843,63.877632 59.8824743,75.830432 C57.3714443,76.683192 54.8604243,77.537132 52.4001843,78.391062 C48.0808843,79.395002 44.0639543,80.400122 39.5946843,80.902092 C33.4671143,81.153672 28.3458843,80.600912 22.4698843,78.893032 C11.2210843,74.222942 4.54188433,66.288332 1.17698433,54.637835 C-0.530895669,45.447665 -0.530895669,37.613435 2.18092433,28.523635 C3.98919433,24.054335 6.45061433,20.388195 9.36321433,16.522435 C14.7360543,11.148415 20.0593143,8.436595 27.2404143,5.875935 C37.6861143,3.615305 47.6794143,4.870815 57.8735143,7.683025 C56.6687843,11.047995 55.5136643,14.462565 54.3585443,17.878325 C47.5282243,16.772815 47.5282243,16.772815 43.2101443,16.371235 L43.2100443,16.371282 Z" id="_160931784" fill="#FFFFFF"></path>
        <path d="M92.6817943,26.222232 C86.2344443,26.458753 79.9603543,28.929657 73.4317943,31.534732 C74.3861243,34.095372 75.3653543,36.704562 76.3692943,39.315982 C79.1815043,38.412432 81.9750443,37.51367 84.8380443,36.659732 C87.9006543,35.956975 91.4746543,35.744869 94.5880443,36.347232 C99.5097043,38.456722 99.6997543,42.370892 99.9005443,47.190982 C91.0115443,47.743742 82.6394843,47.900572 75.0567943,52.972232 C73.4989243,54.578532 71.7236243,56.107712 70.6192943,58.065982 C68.9622043,62.434842 69.1649643,66.083792 70.1192943,70.503482 C72.5795543,75.726292 75.2581643,78.476072 80.6817943,80.534732 C88.5148943,81.991032 93.9882343,78.882572 99.7130443,73.659732 C99.8134443,73.659732 99.9056143,73.735132 100.056794,73.784732 C100.859944,79.158752 101.056794,79.358542 101.056794,79.659732 C104.823314,79.659732 108.602754,79.703882 112.369294,79.753482 C112.318504,67.048382 112.263844,54.333582 112.213044,41.628482 C111.158314,35.903682 109.359704,32.024702 104.588044,28.659732 C100.501704,26.720213 96.5502043,26.08032 92.6817943,26.222232 Z M99.8692943,55.440982 C99.9188943,58.605162 99.9446843,61.820942 99.9942943,65.034732 C97.7348443,68.852062 91.9749443,70.644872 87.8067943,71.097232 C84.9449743,70.294082 82.9869143,69.509842 81.6817943,66.597232 C79.9739143,56.152732 92.4861943,55.641682 99.8692943,55.440982 Z" id="_160943568" fill="#FFFFFF"></path>
        <path d="M152.334044,79.847482 C152.334044,62.371882 152.334044,44.895082 152.334044,27.419482 C152.384844,27.419482 152.434434,27.419482 152.534834,27.419482 C156.753734,27.419482 160.971464,27.419482 165.239934,27.419482 C165.290734,44.845482 165.340324,62.271482 165.391114,79.747082 C161.122604,79.747082 156.903704,79.797882 152.686014,79.847482 C152.534834,79.847482 152.434434,79.847482 152.334044,79.847482 L152.334044,79.847482 Z" id="_160201800" fill="#FFFFFF"></path>
        <path d="M125.317044,0.301182 C125.317044,0.200788 125.317044,0.100394 125.317044,0 C129.685944,0 134.056034,0 138.474544,0 C138.474544,26.5654 138.474544,53.1308 138.474544,79.747002 C134.105644,79.747002 129.736734,79.747002 125.417444,79.747002 C125.367844,53.2312 125.317044,26.7662 125.317044,0.3012 L125.317044,0.301182 Z" id="_160201896" fill="#FFFFFF"></path>
        <path d="M228.014024,79.746492 C228.014024,62.320482 228.014024,44.894482 228.014024,27.519282 C232.282554,27.469672 236.601854,27.418888 240.919944,27.418888 C240.970744,44.844888 241.020334,62.270892 241.071124,79.746492 C236.702224,79.746492 232.333314,79.746492 228.014024,79.746492 L228.014024,79.746492 Z" id="_160201968" fill="#FFFFFF"></path>
        <path d="M292.645044,79.746482 C292.645044,67.744082 292.645044,55.792482 292.695844,43.840882 C292.695844,55.792482 292.745444,67.744082 292.796234,79.746482 C292.745434,79.746482 292.695844,79.746482 292.645054,79.746482 L292.645044,79.746482 Z" id="_160202040" fill="#F7CEB5"></path>
        <path d="M280.341044,65.434502 C280.291444,62.070702 280.240654,58.705732 280.240654,55.391582 C280.291454,55.391582 280.341044,55.441192 280.441434,55.491976 C280.391834,58.806156 280.341044,62.120332 280.341044,65.434502 L280.341044,65.434502 Z" id="_160208248" fill="#EFAD84"></path>
        <path d="M158.461044,15.818482 C151.832684,15.015331 150.124814,7.883822 154.243324,3.264482 C160.771284,-0.854028 167.149224,4.168027 165.240624,11.600712 C163.533924,14.412922 161.676054,15.517252 158.461084,15.818482 L158.461044,15.818482 Z" id="_160211680" fill="#FFFFFF"></path>
        <path d="M234.140044,15.818489 C228.566414,14.714152 226.055384,9.943672 228.716414,4.620482 C231.931384,1.003942 236.851854,0.602362 240.167214,4.469301 C242.577844,9.441751 241.070764,13.710261 236.048704,15.617701 C235.395554,15.668491 234.743584,15.718095 234.140044,15.818489 L234.140044,15.818489 Z" id="_160211752" fill="#FFFFFF"></path>
        <path d="M271.806794,26.128482 C265.579994,26.831242 259.587464,28.936202 253.963044,31.597232 C253.561464,32.803132 255.896604,37.802252 256.900544,39.409732 C262.575744,37.300282 267.343304,35.940982 273.369294,35.940982 C273.570084,36.14177 273.547734,36.164407 275.556794,36.565982 C279.976484,38.876262 279.936464,42.583392 280.338044,47.253482 C269.490744,47.956182 254.794444,47.856133 250.275544,60.159732 C248.166144,70.404632 253.316544,79.509282 263.963044,81.065982 C270.492184,81.065982 275.556244,78.097782 280.025544,73.628482 C280.176724,73.577682 280.343114,73.565982 280.494294,73.565982 C281.247834,78.839612 281.237254,78.843292 281.588044,79.847232 C285.254144,79.797642 288.934794,79.753482 292.650544,79.753482 C292.650544,67.751082 292.630994,55.798832 292.681794,43.847232 C292.028644,36.564572 290.171464,32.277062 283.994294,28.159732 C280.579724,26.803827 279.101334,26.61052 278.900544,26.409732 C276.540694,26.309338 274.167824,26.228876 271.806794,26.128482 Z M280.244294,55.378482 C280.244294,58.692662 280.288454,62.077222 280.338044,65.440982 C275.868744,69.157912 267.384344,74.519732 262.713044,67.940982 C257.792564,57.044082 273.113994,55.579282 280.244294,55.378482 Z" id="_160943640" fill="#FFFFFF"></path>
    </g>
</svg>