<?xml version="1.0" encoding="UTF-8"?>
<svg width="536px" height="147px" viewBox="0 0 536 147" version="1.1" xmlns="http://www.w3.org/2000/svg" xmlns:xlink="http://www.w3.org/1999/xlink">
    <!-- Generator: Sketch 59.1 (86144) - https://sketch.com -->
    <title>logoColor</title>
    <desc>Created with Sketch.</desc>
    <g id="logoColor" stroke="none" stroke-width="1" fill="none" fill-rule="evenodd">
        <g id="Group-4" transform="translate(-0.402300, -0.884192)">
            <rect id="Rectangle" fill="#FFFFFF" x="0.4023" y="0.884192" width="535" height="147"></rect>
            <path d="M75.9493,8 C78.31033,8.151181 80.72096,8.301182 83.13159,8.501969 C83.332378,8.703938 86.14459,9.005119 86.34537,9.205907 C99.35167,11.616537 109.94737,17.692137 119.89107,26.229207 C124.71234,31.201657 128.57927,36.223707 132.29507,42.098507 C133.60019,44.861107 134.9561,47.622527 136.312,50.385137 C138.17106,56.511527 139.57657,62.035537 140.5309,68.313137 C140.5805,71.627317 140.6809,74.992277 140.78247,78.356037 C140.48011,80.917847 140.17893,83.478487 139.92854,86.040297 C137.86869,96.083202 134.25334,104.671002 128.67974,113.208102 C125.86753,116.874252 125.86753,116.874252 125.66674,117.326612 C118.28366,125.159692 111.15334,130.785312 101.66194,135.656212 C99.30091,136.510142 96.99185,137.413692 94.68162,138.317242 C88.604837,140.125512 82.327317,141.330242 75.949317,141.582192 C52.9497,141.531392 29.95,141.531392 7,141.531392 L7,8.100394 L7,8.100394 C29.95,8.050784 52.9497,8 75.9493,8 Z M78.61148,27.988102 C77.95833,23.267227 74.14219,21.559352 70.12407,24.170772 C69.019735,25.426282 68.61816,26.380612 68.61816,28.088492 C70.978008,33.913692 71.631158,39.839322 71.93234,46.116892 C65.55434,45.916102 59.57795,45.062162 53.60274,42.751922 C46.62241,43.354272 47.0736,52.796022 53.75274,52.796022 C59.17644,50.184596 65.70553,49.581052 71.68074,49.431052 C71.93232,52.946042 71.028774,56.712582 70.42523,60.127152 C69.47208,63.291332 68.56735,66.656292 65.45396,68.212992 C67.56341,87.948092 70.77719,107.784692 73.5894,127.470192 C73.7902,127.119352 75.346892,115.166542 75.54768,114.965752 C81.37289,71.47633 81.573677,71.27555 81.87604,68.26255 C76.150051,66.85705 75.748475,53.2472 75.3469,49.53145 C81.3233,49.68145 88.00247,50.08421 93.4261,52.79602 C100.15485,52.79602 100.50682,43.405071 93.626888,42.75192 C87.951688,45.262952 81.775658,45.815708 75.648088,46.11689 C75.498088,46.016496 75.397694,45.965712 75.2973,45.916102 C75.79927,39.487302 76.15006,34.014092 78.61148,27.988102 Z" id="Combined-Shape" fill="#AD2931"></path>
            <path d="M529.07166,8.001118 C529.12126,8.051908 529.17205,8.101512 529.27245,8.152299 L529.27245,141.431302 L529.27245,141.431302 C422.6082,141.394102 315.972637,141.356227 209.343762,141.339614 L102.7183,141.330118 L103.591061,140.935844 C112.00891,137.078341 119.328623,132.179992 126.3183,126.014592 C126.61948,125.512622 129.13051,123.152772 133.39902,118.130722 C137.31674,112.656302 140.7821,107.232722 143.74432,101.157122 C144.59826,98.796092 145.5018,96.436252 146.40653,94.126012 C151.3778,77.504312 151.12622,61.434212 145.90338,44.911812 C145.05062,42.701962 144.19668,40.493302 143.34275,38.333062 C138.42109,28.691712 132.54625,20.656662 124.76165,13.123562 C122.75259,11.416862 120.74472,9.758592 118.73566,8.101512 C255.48066,8.051902 392.27566,8.001118 529.07166,8.001118 Z M102.7183,141.330118 L102.7163,141.331192 L102.7163,141.330902 L102.7183,141.330118 Z M394.23434,60.881602 C374.59964,63.141002 365.65987,81.873302 370.38074,100.102502 C371.0835,101.659202 371.78744,103.215892 372.5398,104.772592 C377.5123,112.254862 383.2867,115.267862 392.07526,116.072212 C399.15606,115.267882 405.43358,113.260002 411.51036,109.643462 C411.1076,107.434802 409.20012,104.823382 408.14539,102.814322 C407.79343,102.814322 407.79343,102.814322 406.7387,103.316292 C401.7674,104.872992 396.84575,105.224962 391.7233,104.521022 C390.61897,104.019052 389.51464,103.517082 388.45991,103.015112 C379.8721,96.385612 380.82643,85.237154 386.45085,77.001314 C389.31385,73.887924 392.07527,72.683194 396.14299,71.678074 L396.14299,71.678074 L402.01898,71.678074 C405.38276,72.382012 405.38276,72.382012 406.88985,72.532012 C409.90285,64.648146 409.90285,64.648146 410.00324,63.894602 C404.83124,62.187902 399.70876,60.881602 394.23434,60.881602 Z M465.24605,60.946192 C459.01925,61.648952 453.02672,63.753912 447.4023,66.414942 C447.00072,67.620842 449.33586,72.619962 450.3398,74.227442 C456.015,72.117992 460.78256,70.758692 466.80855,70.758692 C467.00934,70.95948 466.98699,70.982117 468.99605,71.383692 C473.41574,73.693972 473.37572,77.401102 473.7773,82.071192 C462.93,82.773892 448.2337,82.673843 443.7148,94.977442 C441.6054,105.222342 446.7558,114.326992 457.4023,115.883692 C463.93144,115.883692 468.9955,112.915492 473.4648,108.446192 C473.61598,108.395392 473.78237,108.383692 473.93355,108.383692 C474.68709,113.657322 474.67651,113.661002 475.0273,114.664942 L475.0273,114.664942 L477.779924,114.629373 C480.535919,114.596032 483.302987,114.571192 486.089256,114.56371 L486.089256,114.56371 L486.23549,114.564192 C486.1847,102.561792 486.1351,90.610192 486.1351,78.658592 L486.1343,78.724118 L486.109464,86.134951 C486.102803,88.6273727 486.097866,91.1202471 486.094166,93.6140274 L486.0853,100.658118 L486.087682,93.6160207 C486.089302,91.1229224 486.092349,88.6307488 486.097639,86.1390518 L486.12105,78.664942 C485.4679,71.382282 483.61072,67.094772 477.43355,62.977442 C474.01898,61.621537 472.54059,61.42823 472.3398,61.227442 C469.97995,61.127048 467.60708,61.046586 465.24605,60.946192 Z M251.31277,42.500735 C241.11867,39.688525 231.12537,38.433015 220.67967,40.693645 C213.49857,43.254305 208.17531,45.966125 202.80247,51.340145 C199.88987,55.205905 197.42845,58.872045 195.62018,63.341345 C192.90836,72.431145 192.90836,80.265375 194.61624,89.455545 C197.98114,101.106042 204.66034,109.040652 215.90914,113.710742 C221.78514,115.418622 226.90637,115.971382 233.03394,115.719802 C237.50321,115.217832 241.52014,114.212712 245.83944,113.208772 C248.29968,112.354842 250.8107,111.500902 253.32173,110.648142 C253.27094,98.695342 253.22134,86.794545 253.22134,74.892545 L253.22134,74.892545 L227.20754,74.892545 L227.20754,74.992939 C227.20754,78.558709 227.20754,82.123289 227.25834,85.689039 C239.734043,85.8831341 240.1499,85.8896039 240.163762,86.0263808 L240.163762,86.0263808 L240.16424,86.041008 C240.11465,91.665508 240.06385,97.289892 240.06385,102.914312 C237.35199,104.270212 232.22955,103.868642 229.06655,103.868642 C227.50986,103.567462 226.00277,103.266272 224.49568,103.014702 C217.46577,100.302902 213.59883,96.687522 210.03308,89.857202 C207.62245,82.876902 207.12048,76.248512 208.92875,68.967002 C209.12953,68.765032 209.83229,66.605972 211.33938,63.392192 C216.31068,56.361042 223.64298,51.188992 232.63118,51.188992 L232.63118,51.188992 L236.6494,51.188945 C240.96748,51.590525 240.96748,51.590525 247.7978,52.696035 C248.95292,49.280275 250.10804,45.865705 251.31277,42.500735 Z M298.0273,63.477442 C293.94096,61.537923 289.98946,60.89803 286.12105,61.039942 C279.6737,61.276463 273.39961,63.747367 266.87105,66.352442 C267.82538,68.913082 268.80461,71.522272 269.80855,74.133692 C272.62076,73.230142 275.4143,72.33138 278.2773,71.477442 C281.33991,70.774685 284.91391,70.562579 288.0273,71.164942 C292.94896,73.274432 293.13901,77.188602 293.3398,82.008692 C284.4508,82.561452 276.07874,82.718282 268.49605,87.789942 C266.93818,89.396242 265.16288,90.925422 264.05855,92.883692 C262.40146,97.252552 262.60422,100.901502 263.55855,105.321192 C266.01881,110.544002 268.69742,113.293782 274.12105,115.352442 C281.95415,116.808742 287.42749,113.700282 293.1523,108.477442 C293.2527,108.477442 293.34487,108.552842 293.49605,108.602442 C294.2992,113.976462 294.49605,114.176252 294.49605,114.477442 C298.26257,114.477442 302.04201,114.521592 305.80855,114.571192 C305.75776,101.866092 305.7031,89.151292 305.6523,76.446192 C304.59757,70.721392 302.79896,66.842412 298.0273,63.477442 Z M358.67919,62.237192 L345.7733,62.237192 L345.7733,114.665192 L346.12527,114.665192 C350.34296,114.615592 354.56186,114.564792 358.83037,114.564792 C358.77958,97.089192 358.72999,79.663192 358.67919,62.237192 L358.67919,62.237192 Z M331.9138,34.81771 L318.7563,34.81771 L318.7563,35.11891 C318.7563,61.58391 318.8071,88.04891 318.8567,114.564712 L318.8567,114.564712 L331.9138,114.564712 L331.9138,34.81771 Z M434.3592,62.236598 C430.04111,62.236598 425.72181,62.287382 421.45328,62.336992 L421.45328,62.336992 L421.45328,114.564202 L434.51038,114.564202 C434.45959,97.088602 434.41,79.662598 434.3592,62.236598 Z M293.30855,90.258692 C293.35815,93.422872 293.38394,96.638652 293.43355,99.852442 C291.1741,103.669772 285.4142,105.462582 281.24605,105.914942 C278.38423,105.111792 276.42617,104.327552 275.12105,101.414942 C273.41317,90.970442 285.92545,90.459392 293.30855,90.258692 Z M473.683256,90.20971 L473.683256,90.20971 C473.67991,91.813861 473.691816,93.4303427 473.710243,95.0525376 C473.727616,96.7851227 473.751736,98.524671 473.7773,100.258692 C469.308,103.975622 460.8236,109.337442 456.1523,102.758692 C451.23182,91.861792 466.55325,90.396992 473.68355,90.196192 L473.68355,90.196192 Z M358.67988,46.418422 C360.58848,38.985737 354.21054,33.963682 347.68258,38.082192 C343.56407,42.701532 345.27194,49.833041 351.90034,50.636192 C355.11531,50.334962 356.97318,49.230632 358.67988,46.418422 Z M433.60647,39.287011 C430.29111,35.420072 425.37064,35.821652 422.15567,39.438192 C419.49464,44.761382 422.00567,49.531862 427.5793,50.636199 C428.18284,50.535805 428.83481,50.486201 429.48796,50.435411 C434.51002,48.527971 436.0171,44.259461 433.60647,39.287011 Z" id="Combined-Shape" fill="#FF6600"></path>
        </g>
    </g>
</svg>