<?xml version="1.0" encoding="UTF-8"?>
<svg width="135px" height="134px" viewBox="0 0 135 134" version="1.1" xmlns="http://www.w3.org/2000/svg" xmlns:xlink="http://www.w3.org/1999/xlink">
    <!-- Generator: Sketch 59.1 (86144) - https://sketch.com -->
    <title>logoCircle</title>
    <desc>Created with Sketch.</desc>
    <g id="logoCircle" stroke="none" stroke-width="1" fill="none" fill-rule="evenodd">
        <path d="M70.0614114,0 C72.4262804,0.151653852 74.8408301,0.302124014 77.2553798,0.50353902 C77.4564943,0.706139723 80.2732789,1.00826273 80.4743854,1.20967874 C93.5018336,3.62784852 104.114762,9.72245131 114.074631,18.2862229 C118.90374,23.2742253 122.776958,28.3119829 126.4988,34.2051577 C127.806042,36.9763983 129.164156,39.7464553 130.522261,42.5177059 C132.384344,48.6632576 133.792139,54.2045452 134.748021,60.5017797 C134.797702,63.8263256 134.898265,67.2018102 135,70.5760911 C134.697148,73.1459138 134.395479,75.7145627 134.144682,78.2843854 C132.081482,88.3587018 128.460254,96.973362 122.877591,105.537164 C120.060808,109.21478 120.060808,109.21478 119.859692,109.668555 C112.464607,117.526135 105.322693,123.16935 95.8158601,128.055485 C93.4509911,128.912086 91.1381765,129.818462 88.8241901,130.724838 C82.7375263,132.538764 76.4497991,133.747262 70.0614284,134 C69.3137107,133.998346 68.5902619,133.855634 67.8910818,133.581023 C67.194097,133.855497 66.4703131,133.998345 65.7222371,134 C59.3338665,133.747262 53.0461393,132.538764 46.9594754,130.724838 C44.645489,129.818462 42.3326745,128.912086 39.9678055,128.055485 C30.4609725,123.16935 23.3190586,117.526135 15.9239737,109.668555 C15.8297469,109.455953 15.7796671,109.342959 15.4633605,108.904683 L15.3702613,108.776769 L12.9060746,105.537164 C7.32341191,96.973362 3.70218336,88.3587018 1.63898405,78.2843854 C1.38818692,75.7145627 1.0865172,73.1459138 0.783665564,70.5760911 C0.885400716,67.2018102 0.985963966,63.8263256 1.03564462,60.5017797 C1.99152635,54.2045452 3.39932171,48.6632576 5.26140454,42.5177059 C6.61950923,39.7464553 7.97762393,36.9763983 9.28486606,34.2051577 C13.0067079,28.3119829 16.8799256,23.2742253 21.7090349,18.2862229 C31.6689034,9.72245131 42.281832,3.62784852 55.3092802,1.20967874 C55.5103866,1.00826273 58.3271713,0.706139723 58.5282858,0.50353902 C60.9428354,0.302124014 63.3573851,0.151653852 65.7222542,0 C66.4703296,0 67.1941129,0.141246811 67.8936042,0.414568824 C68.5902459,0.14111155 69.3136942,0 70.0614114,0 Z M72.7279201,20.0506192 C72.0737081,15.3149786 68.2513631,13.6017619 64.2267096,16.2213497 C63.120579,17.4807866 62.718351,18.4381014 62.718351,20.1513232 C65.0820361,25.9947428 65.7362481,31.9389066 66.0379198,38.2361111 C59.6495492,38.034693 53.6634416,37.1780822 47.678516,34.8606164 C40.686836,35.4648503 41.1387596,44.9361315 47.8287599,44.9361315 C53.2612788,42.3165377 59.8009851,41.711106 65.7859107,41.5606368 C66.0378998,45.0866207 65.1328846,48.8649414 64.5283593,52.2901913 C63.5736595,55.4642679 62.6674584,58.8397526 59.549006,60.4013215 C61.661886,80.1981474 64.8808916,100.096791 67.6976842,119.843862 C67.8988007,119.491924 69.4580239,107.501729 69.6591384,107.300311 C75.3771265,64.5473752 75.6846357,63.4988843 75.9796932,60.6293647 L75.9977883,60.4510345 C70.2624888,59.0411385 69.8602599,45.3887207 69.4580319,41.6613488 C75.4441495,41.811818 82.1341798,42.2158377 87.5666286,44.9361295 C94.3063196,44.9361295 94.6588619,35.5158082 87.7677431,34.8606144 C82.0833153,37.3795002 75.8972431,37.933985 69.7597096,38.236109 C69.6094657,38.135401 69.5089085,38.0844582 69.4083513,38.034693 C69.9111375,31.5857855 70.2624978,26.0954569 72.7279201,20.0506192 Z" id="Combined-Shape" fill="#787878"></path>
    </g>
</svg>